<svg width="512px" height="512px" viewBox="0 0 512 512" xmlns="http://www.w3.org/2000/svg" xmlns:xlink="http://www.w3.org/1999/xlink" aria-hidden="true" role="img" class="iconify iconify--fxemoji" preserveAspectRatio="xMidYMid meet"><path fill="#BC7520" d="M485.732 57.585H361.479c-7.315 0-14.182 3.891-18.442 10.451L332.18 84.75c-4.261 6.56-11.127 10.451-18.442 10.451H101.364c-12.53 0-22.688 11.205-22.688 25.028v264.55c0 13.823 10.158 25.028 22.688 25.028H428.67a40.443 40.443 0 0 0-.982 8.835c0 22.293 18.072 40.366 40.366 40.366c21.259 0 38.667-16.438 40.238-37.294c.076-.506.128-1.021.128-1.548V82.613c0-13.823-10.157-25.028-22.688-25.028z"></path><path fill="#FFB636" d="M167.801 183.149l13.57 13.491c5.326 5.295 12.824 8.435 20.139 8.435h212.375c12.53 0 24.507 9.044 26.752 20.201l42.959 213.531c2.245 11.157-6.093 20.201-18.623 20.201H80.605c-12.53 0-24.507-9.044-26.752-20.201L17.658 258.898L6.829 205.075l-2.044-10.16c-2.245-11.157 6.093-20.201 18.623-20.201h124.254c7.315-.001 14.814 3.14 20.139 8.435z"></path></svg>