<?xml version="1.0" encoding="UTF-8" standalone="no"?><svg xmlns="http://www.w3.org/2000/svg" xmlns:xlink="http://www.w3.org/1999/xlink" contentStyleType="text/css" height="152px" preserveAspectRatio="none" style="width:233px;height:152px;background:#FFFFFF;" version="1.1" viewBox="0 0 233 152" width="233px" zoomAndPan="magnify"><defs/><g><line style="stroke:#181818;stroke-width:0.5;stroke-dasharray:5.0,5.0;" x1="52" x2="52" y1="53.2969" y2="102.4297"/><line style="stroke:#181818;stroke-width:0.5;stroke-dasharray:5.0,5.0;" x1="191.5" x2="191.5" y1="53.2969" y2="102.4297"/><rect fill="#E2E2F0" height="30.2969" rx="2.5" ry="2.5" style="stroke:#181818;stroke-width:0.5;" width="94" x="5" y="22"/><text fill="#000000" font-family="sans-serif" font-size="14" lengthAdjust="spacing" textLength="80" x="12" y="41.9951">Participant</text><rect fill="#E2E2F0" height="30.2969" rx="2.5" ry="2.5" style="stroke:#181818;stroke-width:0.5;" width="94" x="5" y="101.4297"/><text fill="#000000" font-family="sans-serif" font-size="14" lengthAdjust="spacing" textLength="80" x="12" y="121.4248">Participant</text><text fill="#000000" font-family="sans-serif" font-size="14" lengthAdjust="spacing" textLength="75" x="151.5" y="49.9951">Reception</text><path d="M171.5,9 L171.5,33 M171.5,21 L188.5,21 " fill="none" style="stroke:#181818;stroke-width:0.5;"/><ellipse cx="200.5" cy="21" fill="#E2E2F0" rx="12" ry="12" style="stroke:#181818;stroke-width:0.5;"/><text fill="#000000" font-family="sans-serif" font-size="14" lengthAdjust="spacing" textLength="75" x="151.5" y="114.4248">Reception</text><path d="M171.5,121.7266 L171.5,145.7266 M171.5,133.7266 L188.5,133.7266 " fill="none" style="stroke:#181818;stroke-width:0.5;"/><ellipse cx="200.5" cy="133.7266" fill="#E2E2F0" rx="12" ry="12" style="stroke:#181818;stroke-width:0.5;"/><polygon fill="#181818" points="180,80.4297,190,84.4297,180,88.4297,184,84.4297" style="stroke:#181818;stroke-width:1.0;"/><line style="stroke:#181818;stroke-width:1.0;" x1="52" x2="186" y1="84.4297" y2="84.4297"/><text fill="#000000" font-family="sans-serif" font-size="13" lengthAdjust="spacing" textLength="116" x="59" y="79.3638">Message(Hi there)</text><!--MD5=[800c485395b55d2fb6501fd3be789c3e]
@startuml
participant Participant as Foo
boundary    Reception    as Foo1
Foo -> Foo1 : Message(Hi there)
@enduml

PlantUML version 1.2022.10beta2(Unknown compile time)
(GPL source distribution)
Java Runtime: Java(TM) SE Runtime Environment
JVM: Java HotSpot(TM) 64-Bit Server VM
Default Encoding: UTF-8
Language: en
Country: US
--></g></svg>