<?xml version="1.0" encoding="UTF-8" standalone="no"?>
<svg xmlns="http://www.w3.org/2000/svg" xmlns:xlink="http://www.w3.org/1999/xlink" contentStyleType="text/css"  style="width:490px;height:890px;background:#FFFFFF;" version="1.1" viewBox="0 0 490 890" zoomAndPan="magnify">
<defs/>
<g>
  <g id="cluster_Main"><rect height="220.3125" rx="3.9063" ry="3.9063" style="stroke:#181818;stroke-width:1.5625;fill:none;" width="215.625" x="18.75" y="89.0625"/><text fill="#000000" font-family="sans-serif" font-size="18.75" font-weight="bold" lengthAdjust="spacing" textLength="53.125" x="23.4375" y="109.5917">Main</text></g>
  <g id="cluster_Base"><rect height="200" rx="3.9063" ry="3.9063" style="stroke:#181818;stroke-width:1.5625;fill:none;" width="401.5625" x="10.9375" y="360.9375"/><text fill="#000000" font-family="sans-serif" font-size="18.75" font-weight="bold" lengthAdjust="spacing" textLength="54.6875" x="15.625" y="381.4667">Base</text></g>
  <g id="cluster_More"><rect height="115.625" rx="3.9063" ry="3.9063" style="stroke:#181818;stroke-width:1.5625;fill:none;" width="301.5625" x="179.6875" y="598.4375"/><text fill="#000000" font-family="sans-serif" font-size="18.75" font-weight="bold" lengthAdjust="spacing" textLength="57.8125" x="184.375" y="618.9667">More</text></g>
  <g id="cluster_EvenMore"><rect height="115.625" rx="3.9063" ry="3.9063" style="stroke:#181818;stroke-width:1.5625;fill:none;" width="296.875" x="179.6875" y="765.625"/><text fill="#000000" font-family="sans-serif" font-size="18.75" font-weight="bold" lengthAdjust="spacing" textLength="110.9375" x="184.375" y="786.1542">EvenMore</text></g><g id="elem_main.view"><ellipse cx="126.8602" cy="159.4345" fill="#F1F1F1" rx="83.1102" ry="20.372" style="stroke:#181818;stroke-width:0.625;"/><text fill="#000000" font-family="sans-serif" font-size="18.75" lengthAdjust="spacing" textLength="92.1875" x="76.0789" y="163.8398">main.view</text></g><g id="elem_singleton"><ellipse cx="123.768" cy="263.9802" fill="#F1F1F1" rx="79.2368" ry="20.2302" style="stroke:#181818;stroke-width:0.625;"/><text fill="#000000" font-family="sans-serif" font-size="18.75" lengthAdjust="spacing" textLength="85.9375" x="76.1118" y="268.3854">singleton</text></g><g id="elem_base.component"><ellipse cx="210.8145" cy="509.8192" fill="#F1F1F1" rx="108.4708" ry="25.4442" style="stroke:#181818;stroke-width:0.625;"/><text fill="#000000" font-family="sans-serif" font-size="18.75" lengthAdjust="spacing" textLength="157.8125" x="131.9083" y="513.1852">base.component</text></g><g id="elem_component"><ellipse cx="300.347" cy="432.2569" fill="#F1F1F1" rx="87.847" ry="21.3194" style="stroke:#181818;stroke-width:0.625;"/><text fill="#000000" font-family="sans-serif" font-size="18.75" lengthAdjust="spacing" textLength="106.25" x="243.5092" y="436.4735">component</text></g><g id="elem_model"><ellipse cx="96.649" cy="431.8397" fill="#F1F1F1" rx="59.9302" ry="20.1209" style="stroke:#181818;stroke-width:0.625;"/><text fill="#000000" font-family="sans-serif" font-size="18.75" lengthAdjust="spacing" textLength="59.375" x="66.9615" y="435.2058">model</text></g><g id="elem_more"><ellipse cx="403.3011" cy="668.5584" fill="#F1F1F1" rx="53.3011" ry="20.1209" style="stroke:#181818;stroke-width:0.625;"/><text fill="#000000" font-family="sans-serif" font-size="18.75" lengthAdjust="spacing" textLength="50" x="378.3011" y="671.9245">more</text></g><g id="elem_less"><ellipse cx="250.2546" cy="668.5584" fill="#F1F1F1" rx="45.5671" ry="20.1209" style="stroke:#181818;stroke-width:0.625;"/><text fill="#000000" font-family="sans-serif" font-size="18.75" lengthAdjust="spacing" textLength="39.0625" x="230.7234" y="671.9245">less</text></g><g id="elem_even"><ellipse cx="400.3101" cy="835.7459" fill="#F1F1F1" rx="51.0914" ry="20.1209" style="stroke:#181818;stroke-width:0.625;"/><text fill="#000000" font-family="sans-serif" font-size="18.75" lengthAdjust="spacing" textLength="46.875" x="376.8726" y="839.112">even</text></g><g id="elem_why"><ellipse cx="249.931" cy="835.7459" fill="#F1F1F1" rx="44.4623" ry="20.1209" style="stroke:#181818;stroke-width:0.625;"/><text fill="#000000" font-family="sans-serif" font-size="18.75" lengthAdjust="spacing" textLength="37.5" x="231.181" y="839.112">why</text></g>
  <g id="elem_main_ts"><rect fill="#F1F1F1" height="53.0762" rx="3.9063" ry="3.9063" style="stroke:#181818;stroke-width:1.5625;" width="114.0625" x="69.5313" y="10.9375"/><text fill="#000000" font-family="sans-serif" font-size="18.75" font-weight="bold" lengthAdjust="spacing" textLength="82.8125" x="85.1563" y="43.9667">main.ts</text></g>
  <g id="link_component_base.component"><path d="M277.525,452.5188 C267.7953,460.7125 256.1875,470.4891 245.4078,479.5656 " fill="none" id="component-to-base.component" style="stroke:#181818;stroke-width:1.09375;stroke-dasharray:7.0,7.0;"/><polygon fill="#181818" points="238.8266,485.1078,253.6093,480.8314,244.8028,480.0759,245.5582,471.2694,238.8266,485.1078" style="stroke:#181818;stroke-width:1.09375;"/></g>
  <g id="link_main_ts_main.view"><path d="M126.5625,64.2469 C126.5625,83.7859 126.5625,110.8187 126.5625,130.8063 " fill="none" id="main_ts-to-main.view" style="stroke:#181818;stroke-width:3.125;"/><polygon fill="#181818" points="126.5625,138.8984,132.8125,124.8359,126.5625,131.0859,120.3125,124.8359,126.5625,138.8984" style="stroke:#181818;stroke-width:3.125;"/></g>
  <g id="link_main.view_component"><path d="M156.4234,178.6328 C179.2375,193.4875 210.0141,216.6063 229.6875,243.75 C265.9359,293.7609 285.8016,364.6938 294.5188,403.1391 " fill="none" id="main.view-to-component" style="stroke:#181818;stroke-width:1.09375;"/><polygon fill="#181818" points="296.2125,410.8297,299.2949,395.7527,294.5338,403.1997,287.0868,398.4386,296.2125,410.8297" style="stroke:#181818;stroke-width:1.09375;"/></g>
  <g id="link_main.view_singleton"><path d="M125.9747,180.0406 C125.4945,195.6453 124.81,217.8938 124.273,235.3484 " fill="none" id="main.view-to-singleton" style="stroke:#181818;stroke-width:1.09375;stroke-dasharray:7.0,7.0;"/><polygon fill="#181818" points="124.0227,243.4828,130.7036,229.6199,124.2637,235.674,118.2096,229.2342,124.0227,243.4828" style="stroke:#181818;stroke-width:1.09375;"/></g>
  <g id="link_singleton_model"><path d="M120.3905,284.5344 C115.692,313.6922 106.658,369.7563 101.258,403.2687 " fill="none" id="singleton-to-model" style="stroke:#181818;stroke-width:1.09375;"/><polygon fill="#181818" points="99.9683,411.2719,108.3765,398.3832,101.2115,403.5589,96.0358,396.394,99.9683,411.2719" style="stroke:#181818;stroke-width:1.09375;"/></g>
  <g id="link_component_more"><path d="M321.45,452.6641 C330.3656,461.55 340.175,472.7266 346.875,484.375 C376.2734,535.4891 391.9516,603.65 398.8,640.6172 " fill="none" id="component-to-more" style="stroke:#181818;stroke-width:1.09375;"/><polygon fill="#181818" points="400.2031,648.4484,403.8719,633.5033,398.8237,640.7587,391.5683,635.7105,400.2031,648.4484" style="stroke:#181818;stroke-width:1.09375;"/></g>
  <g id="link_less_why"><path d="M250,689.1328 C250,718.1516 250,773.9509 250,807.3033 " fill="none" id="less-to-why" style="stroke:#181818;stroke-width:1.09375;"/><polygon fill="#181818" points="250,815.2691,256.25,801.2066,250,807.4566,243.75,801.2066,250,815.2691" style="stroke:#181818;stroke-width:1.09375;"/></g>
</g>
</svg>
