<svg xmlns="http://www.w3.org/2000/svg"    fill-rule="evenodd"
    clip-rule="evenodd" viewBox="0 0 512 492.526">
    <path
        d="M121.333 218.998c-6.93-6.502-12.692-14.983-17.489-25.098-9.89-20.878-15.167-43.672-15.199-65.972-.182-125.806 153.074-146.646 246.179-114.5 24.537 8.471 45.596 21.326 59.394 39.002 33.107 42.412 40.171 124.628-4.026 162.614-1.768-6.782-2.882-13.616-3.21-20.495l-.002-.077c-.631-13.417 1.694-19.85 4.751-28.329 1.452-4.026 3.062-8.473 4.643-14.228 2.371-8.624 3.638-17.026 3.277-25.067-.381-8.357-2.503-16.308-6.922-23.702a5.906 5.906 0 00-8.096-2.035 5.905 5.905 0 00-2.035 8.096c3.347 5.602 4.96 11.694 5.253 18.148.306 6.766-.803 13.972-2.859 21.461-1.454 5.295-2.98 9.514-4.364 13.325-3.515 9.728-6.187 17.124-5.448 32.886l.008.111c.415 8.671 1.909 17.158 4.271 25.489.109.388.256.757.433 1.103 4.01 9.521 5.721 23.739 4.005 37.093-1.415 11.008-5.158 21.226-11.858 27.184-4.218 3.753-10.134 5.271-16.617 6.932l-.486.145c-9.79 2.513-20.655 5.422-31.523 15.807-4.05 3.867-8.521 8.267-11.916 13.357-3.629 5.445-5.936 11.506-5.232 18.237-16.894 3.464-34.102 5.285-51.371 5.261-16.699-.024-33.453-1.795-49.809-5.195.351-5.345-.958-10.495-3.249-15.278-3.01-6.294-7.729-11.9-12.42-16.382-10.868-10.385-21.733-13.294-31.523-15.807l-.486-.145c-6.481-1.658-12.399-3.179-16.617-6.932-6.7-5.958-10.443-16.176-11.858-27.184-1.718-13.354-.008-27.572 4.002-37.093.177-.346.325-.715.433-1.103a120.104 120.104 0 002.88-12.679c.71-4.205 1.19-8.481 1.396-12.824l.006-.097c.739-15.762-1.932-23.158-5.457-32.883-1.375-3.814-2.901-8.033-4.355-13.328-2.059-7.489-3.165-14.693-2.859-21.461.293-6.451 1.903-12.544 5.253-18.148a5.906 5.906 0 00-2.035-8.096 5.906 5.906 0 00-8.096 2.035c-4.422 7.397-6.541 15.345-6.921 23.702-.367 8.043.902 16.443 3.275 25.067 1.581 5.755 3.192 10.202 4.644 14.249 3.056 8.458 5.382 14.891 4.751 28.308l-.002.082a95.713 95.713 0 01-1.257 11.451 107.38 107.38 0 01-2.532 11.166 52.65 52.65 0 00-.725 1.827zm31.628 138.231l-63.835-32.207c-33.382-16.82-34.198-16.3-60.339-10.931-19.465 3.999-50.807-9.675-5.43-41.874 1.629-23.451 6.768-36.135 15.218-36.861 4.849-.417 12.156 2.049 17.781 10.776 5.063 7.845 8.146 16.374 13.304 23.211 7.494 9.93 48.854 26.36 72.809 35.997 10.316 19.896 10.725 36.188 10.492 51.889zm203.158 1.47l66.755-33.677c33.382-16.82 34.198-16.3 60.339-10.931 19.465 3.999 50.807-9.675 5.43-41.874-1.629-23.451-6.768-36.135-15.218-36.861-4.849-.417-12.156 2.049-17.781 10.776-5.063 7.845-8.146 16.374-13.304 23.211-7.421 9.832-48.056 26.04-72.109 35.715-13.394 23.097-14.571 39.178-14.112 53.641zm-11.414 62.949l28.427 15.606c33.508 16.57 33.807 14.394 45.226 38.516 8.505 17.958 41.781 34.116 36.679-22.598 19.684-8.545 27.556-26.03 23.06-33.221-2.581-4.126-8.943-8.481-19.301-7.734-9.313.67-18.016 4.059-26.548 3.315-12.435-1.085-53.085-21.902-75.561-31.858-.613 11.181-3.313 23.092-11.853 37.755l-.129.219zm-178.553.628l-27.284 14.978c-33.508 16.57-33.807 14.394-45.226 38.516-8.505 17.958-41.781 34.116-36.679-22.598-19.684-8.545-27.556-26.03-23.06-33.221 2.581-4.126 8.943-8.481 19.301-7.734 9.313.67 18.016 4.059 26.548 3.315 12.105-1.056 50.941-20.809 73.73-31.043.82 7.838 2.547 15.989 6.06 24.835a76.958 76.958 0 006.61 12.952zm143.724-76.277a5.936 5.936 0 002.009.479l.32 15.109c-2.698 1.658-5.718 3.165-8.994 4.514l-.401-18.689c2.352-.438 4.706-.908 7.066-1.413zm8.041-3.809c.219-.77.285-1.599.166-2.444-.544-3.772.914-7.467 3.223-10.931 2.712-4.065 6.658-7.937 10.248-11.367a44.728 44.728 0 015.364-4.395c-2.719 7.249-4.881 13.98-6.705 20.646-2.798 10.231-4.786 20.214-6.742 31.642l-.546 3.416c-.784 4.991-1.244 7.898-4.206 11.382l-.802-37.949zm27.912-33.941c4.108-1.681 8.173-2.748 12.043-3.74l.464-.098 2.093-.538c-28.677 52.279 1.27 70.456-23.496 112.979-29.205 50.146-142.951 54.52-168.917-10.889-14.191-35.742 3.754-61.502-16.15-102.23l2.627.678.464.098c2.814.723 5.728 1.483 8.69 2.489 4.29 9.835 7.444 18.599 9.902 27.287 2.824 9.983 4.741 19.908 6.417 31.283l.557 4.229c.974 7.9 1.288 10.426 9.653 17.622 14.888 12.808 39.485 18.964 63.852 19.223 25.505.271 50.991-5.934 65.016-17.716l.201-.158c8.27-7.035 8.859-10.735 10.157-19.008l.547-3.316c1.937-11.329 3.891-21.16 6.589-31.024 2.349-8.582 5.282-17.293 9.291-27.171zm-173.447 2.595a44.04 44.04 0 018.893 6.604c3.83 3.659 7.626 8.126 9.917 12.914 1.629 3.4 2.49 6.987 1.977 10.54-.11.79-.06 1.563.125 2.289-.296 12.473-.589 24.94-.887 37.413-4.435-4.2-4.702-6.32-5.354-11.604l-.583-4.382c-1.713-11.626-3.68-21.802-6.597-32.107-1.982-7.006-4.405-14.062-7.491-21.667zm26.928 36.795a5.913 5.913 0 003.444-1.322c1.814.385 3.63.749 5.446 1.095l-.401 18.718c-3.162-1.338-6.116-2.848-8.819-4.527l.33-13.964zm14.988.852l-.428 19.925c2.912.974 5.95 1.829 9.089 2.561l.425-21.152a256.885 256.885 0 01-9.086-1.334zm15.191 2.041l-.433 21.701c2.54.454 5.127.839 7.745 1.151l.444-22.171a254.514 254.514 0 01-7.756-.681zm13.87 1.048l-.449 22.403c3.265.253 6.562.399 9.864.444l-.116-22.578a245.838 245.838 0 01-9.299-.269zm15.418.261l.116 22.551c3.089-.076 6.161-.24 9.202-.493l-.449-22.338c-2.961.143-5.918.241-8.869.28zm14.986-.652l.443 22.081c2.627-.324 5.211-.718 7.743-1.174l-.434-21.591c-2.589.27-5.171.494-7.752.684zm13.861-1.388l.422 21.044a107.915 107.915 0 009.091-2.516l-.425-19.848a266.99 266.99 0 01-9.088 1.32zm-88.811 18.792l-.401 16.905c2.706 1.884 5.678 3.576 8.864 5.086l.383-17.905a77.166 77.166 0 01-8.846-4.086zm14.923 6.214l-.394 18.34a95.61 95.61 0 009.115 2.886l.378-18.806a112.866 112.866 0 01-9.099-2.42zm15.196 3.627l-.38 19.021c2.537.518 5.124.959 7.74 1.323l.385-19.231c-2.613-.303-5.2-.673-7.745-1.113zm13.854 1.7l-.389 19.351c3.477.322 6.991.518 10.507.584l-.101-19.495c-3.35-.044-6.697-.19-10.017-.44zm16.136.403l.101 19.519c3.22-.074 6.427-.254 9.587-.536l-.391-19.471a163.39 163.39 0 01-9.297.488zm15.405-1.106l.391 19.405c2.629-.354 5.216-.784 7.74-1.285l-.386-19.257c-2.539.443-5.126.821-7.745 1.137zm13.843-2.346l.383 19.082a94.606 94.606 0 009.117-2.816l-.398-18.653c-2.92.895-5.963 1.69-9.102 2.387zm15.178-4.464l.391 18.204c3.318-1.563 6.333-3.313 8.972-5.251l-.359-17.013c-2.774 1.484-5.788 2.84-9.004 4.06zm-50.682-68.4l-.578-58.81c-18.591 10.556-33.205 40.171-23.443 69.419 3.735 11.19 20.516-2.811 24.021-10.609zm-39.5-60.708c-7.74 9.59-17.399 18.203-26.564 17.95-17.198-.472-30.626-17.412-35.631-32.408-2.893-8.669-6.391-21.482-1.092-29.522 7.596-11.533 21.236-12.354 35.833-14.941 22.464-3.978 42.571-9.714 45.889 15.516.684 5.214.52 9.007-.393 12.544-2.302 8.928-12.304 23.75-18.042 30.861zm86.017 0c7.74 9.59 17.396 18.203 26.561 17.95 17.197-.472 30.628-17.412 35.633-32.408 2.893-8.669 6.389-21.482 1.09-29.522-7.597-11.533-21.236-12.354-35.831-14.941-22.467-3.978-42.573-9.714-45.889 15.516-.686 5.214-.522 9.007.391 12.544 2.305 8.928 12.306 23.75 18.045 30.861zm-40.176 60.708l.578-58.81c18.591 10.556 33.205 40.171 23.443 69.419-3.735 11.19-20.516-2.811-24.021-10.609z" />
</svg>